# AST/ASF file generated using VICON BodyLanguage
# -----------------------------------------------
:version 1.10
:name VICON
:units
  mass 1.0
  length 0.45
  angle deg
:documentation
   .ast/.asf automatically generated from VICON data using
   VICON BodyBuilder and BodyLanguage model FoxedUp or BRILLIANT.MOD
:root
   order TX TY TZ RX RY RZ
   axis XYZ
   position 0 0 0  
   orientation 0 0 0 
:bonedata
  begin
     id 1 
     name lhipjoint
     direction 0.603808 -0.713975 0.35448 
     length 2.2025 
     axis 0 0 0  XYZ
  end
  begin
     id 2 
     name lfemur
     direction 0.34202 -0.939693 0  
     length 6.55877  
     axis 0 0 20  XYZ
    dof rx ry rz
    limits (-160.0 20.0)
           (-70.0 70.0)
           (-60.0 70.0)
  end
  begin
     id 3 
     name ltibia
     direction 0.34202 -0.939693 0   
     length 6.80302   
     axis 0 0 20   XYZ
    dof rx
    limits (-10.0 170.0)
  end
  begin
     id 4 
     name lfoot
     direction 0.091848 -0.25235 0.963267   
     length 2.03446   
     axis -90 7.62852e-016 20   XYZ
    dof rx rz
    limits (-45.0 90.0)
           (-70.0 20.0)
  end
  begin
     id 5 
     name ltoes
     direction 1.53608e-011 -4.21925e-011 1   
     length 1.02033   
     axis -90 7.62852e-016 20   XYZ
    dof rx
    limits (-90.0 20.0)
  end
  begin
     id 6 
     name rhipjoint
     direction -0.587285 -0.724947 0.359928   
     length 2.16916  
     axis 0 0 0  XYZ 
  end
  begin
     id 7 
     name rfemur
     direction -0.34202 -0.939693 0   
     length 6.43173   
     axis 0 0 -20   XYZ
    dof rx ry rz
    limits (-160.0 20.0)
           (-70.0 70.0)
           (-70.0 60.0)
  end
  begin
     id 8 
     name rtibia
     direction -0.34202 -0.939693 0   
     length 6.70662   
     axis 0 0 -20   XYZ
    dof rx
    limits (-10.0 170.0)
 end
 begin
     id 9 
     name rfoot
     direction -0.11854 -0.325686 0.938018   
     length 2.0773  
     axis -90 -7.62852e-016 -20   XYZ
    dof rx rz
    limits (-45.0 90.0)
           (-20.0 70.0)
  end
  begin
     id 10 
     name rtoes
     direction -1.53547e-011 -4.21838e-011 1   
     length 1.03267   
     axis -90 -7.62852e-016 -20   XYZ
    dof rx
    limits (-90.0 20.0)
  end
  begin
     id 11 
     name lowerback
     direction -0.0286554 0.999539 0.0100613   
     length 2.08751   
     axis 0 0 0   XYZ
    dof rx ry rz
    limits (-20.0 45.0)
           (-30.0 30.0)
           (-30.0 30.0)
  end
  begin
     id 12 
     name upperback
     direction 0.0227093 0.999705 -0.00860929   
     length 2.08517   
     axis 0 0 0   XYZ
    dof rx ry rz
    limits (-20.0 45.0)
           (-30.0 30.0)
           (-30.0 30.0)
  end
  begin
     id 13 
     name thorax
     direction 0.0351627 0.999285 -0.013892   
     length 2.08412   
     axis 0 0 0   XYZ
    dof rx ry rz
    limits (-20.0 45.0)
           (-30.0 30.0)
           (-30.0 30.0)
  end
  begin
     id 14 
     name lowerneck
     direction -0.0696283 0.997344 0.0213922   
     length 1.44164   
     axis 0 0 0   XYZ
    dof rx ry rz
    limits (-20.0 45.0)
           (-30.0 30.0)
           (-30.0 30.0)
  end
  begin
     id 15 
     name upperneck
     direction 0.0531 0.990412 -0.127531   
     length 1.45022   
     axis 0 0 0   XYZ
    dof rx ry rz
    limits (-20.0 45.0)
           (-30.0 30.0)
           (-30.0 30.0)
  end
  begin
     id 16
     name head
     direction 0.0188154 0.998548 -0.0504727  
     length 1.45845  
     axis 0 0 0   XYZ
    dof rx ry rz
    limits (-20.0 45.0)
           (-30.0 30.0)
           (-30.0 30.0)
  end
  begin
     id 17 
     name lclavicle
     direction 0.961559 0.260051 0.088188  
     length 2.86057  
     axis 0 0 0   XYZ
    dof ry rz
    limits (-20.0 10.0)
           (0.0 20.0)
  end
  begin
     id 18 
     name lhumerus
     direction 1 -4.48959e-011 2.88185e-027   
     length 4.36901   
     axis 180 -30 -90   XYZ
    dof rx ry rz
    limits (-60.0 90.0)
           (-90.0 90.0)
           (-90.0 90.0)
  end
  begin
     id 19
     name lradius
     direction 1 -4.48965e-011 -3.92618e-028   
     length 3.21737   
     axis 180 -30 -90   XYZ
    dof rx
    limits (-10.0 170.0)
  end
  begin
     id 20
     name lwrist
     direction 1 -4.49037e-011 2.57246e-027   
     length 1.60869   
     axis -1.61769e-015 90 90   XYZ
    dof ry
    limits (-180.0 0.0)
 end
  begin
     id 21 
     name lhand
     direction 1 -4.48807e-011 5.12958e-027   
     length 0.564313   
     axis -3.27988e-015 90 90   XYZ
    dof rx rz
    limits (-90.0 90.0)
           (-45.0 45.0)
  end
  begin
     id 22 
     name lfingers
     direction 1 -4.48879e-011 1.02687e-026   
     length 0.454963   
     axis -6.5598e-015 90 90   XYZ
    dof rx
    limits (0.0 90.0)
  end
  begin
     id 23
     name lthumb
     direction 0.707107 -6.3475e-011 0.707107   
     length 0.653239   
     axis -90 45 2.19363e-014   XYZ
    dof rx rz
    limits (-45.0 45.0)
           (-45.0 45.0)
  end
  begin
     id 24 
     name rclavicle
     direction -0.954677 0.253915 0.155304   
     length 3.11497  
     axis 0 0 0   XYZ 
    dof ry rz
    limits (-10.0 20.0)
           (-20.0 0.0)
  end
  begin
     id 25 
     name rhumerus
     direction -1 -4.48958e-011 -8.20169e-028  
     length 4.34118   
     axis 180 30 90   XYZ
    dof rx ry rz
    limits (-90.0 60.0)
           (-90.0 90.0)
           (-90.0 90.0)
  end
  begin
     id 26 
     name rradius
     direction -1 -4.48978e-011 1.5676e-027   
     length 3.09531   
     axis 180 30 90   XYZ
    dof rx
    limits (-10.0 170.0)
  end
  begin
     id 27 
     name rwrist
     direction -1 -4.49001e-011 2.57123e-027   
     length 1.54765   
     axis -1.61769e-015 -90 -90   XYZ
    dof ry
    limits (-180.0 0.0)
  end
  begin
     id 28
     name rhand
     direction -1 -4.48847e-011 5.13225e-027   
     length 0.597446   
     axis -3.27988e-015 -90 -90   XYZ
    dof rx rz
    limits (-90.0 90.0)
           (-45.0 45.0)
  end
  begin
     id 29
     name rfingers
     direction -1 -4.49094e-011 1.02974e-026   
     length 0.481677   
     axis -6.5598e-015 -90 -90   XYZ
    dof rx
    limits (0.0 90.0)
  end
  begin
     id 30
     name rthumb
     direction -0.707107 -6.34859e-011 0.707107   
     length 0.691594   
     axis -90 -45 -2.19363e-014   XYZ
    dof rx rz
    limits (-45.0 45.0)
           (-45.0 45.0)
  end
:hierarchy
  begin
    root lhipjoint rhipjoint lowerback
    lhipjoint lfemur
    lfemur ltibia
    ltibia lfoot
    lfoot ltoes
    rhipjoint rfemur
    rfemur rtibia
    rtibia rfoot
    rfoot rtoes
    lowerback upperback
    upperback thorax
    thorax lowerneck lclavicle rclavicle
    lowerneck upperneck
    upperneck head
    lclavicle lhumerus
    lhumerus lradius
    lradius lwrist
    lwrist lhand lthumb
    lhand lfingers
    rclavicle rhumerus
    rhumerus rradius
    rradius rwrist
    rwrist rhand rthumb
    rhand rfingers
  end

#!OML:ASF I:\Acrobat_Osman\acrobat\cartwheel_test 2\Patient 1\Session 1\acrobat.ASF
:FULLY-SPECIFIED
:DEGREES
127
root 6.59596 15.5447 -10.6547 20.0495 5.96344 0.441273
lowerback 12.7534 4.16753 -0.990798
upperback 9.03795 5.37931 0.721756
thorax 2.20955 2.6294 0.732496
lowerneck -9.62144 4.50685 1.75546
upperneck 14.3521 7.22915 -8.66523
head 6.33321 2.94568 -2.42883
rclavicle 2.22639e-014 6.36111e-015
rhumerus -15.5702 15.7116 -69.889
rradius 63.8847
rwrist 1.79285
rhand -23.7694 38.0836
rfingers 7.12502
rthumb 2.70009 8.12098
lclavicle 2.22639e-014 6.36111e-015
lhumerus -22.3409 -0.487608 64.2904
lradius 89.2528
lwrist 28.6916
lhand -20.6591 43.9683
lfingers 7.12502
lthumb 5.70347 73.8715
rfemur -35.598 11.0703 -1.45777
rtibia 25.1879
rfoot -12.6664 -11.0515
rtoes -6.68256
lfemur -35.5786 -6.73503 -0.34029
ltibia 22.6912
lfoot -13.0635 15.7944
ltoes -31.0539
128
root 6.51569 15.5137 -10.7137 20.8127 5.56875 -0.405115
lowerback 13.2069 4.33598 -1.82386
upperback 9.28514 5.50758 0.0915474
thorax 2.21963 2.67128 0.503661
lowerneck -8.91028 4.85547 2.39639
upperneck 12.8565 7.44471 -8.51973
head 5.76704 3.15381 -2.48698
rclavicle 5.1684e-015 -8.34896e-015
rhumerus -15.531 14.2044 -68.5928
rradius 61.1743
rwrist 0.838298
rhand -21.9966 36.9374
rfingers 7.12502
rthumb 4.41208 7.00333
lclavicle 5.1684e-015 -8.34896e-015
lhumerus -19.4963 -0.24292 62.8681
lradius 86.5452
lwrist 30.4833
lhand -22.0218 45.989
lfingers 7.12502
lthumb 4.3877 75.9236
rfemur -36.7169 11.0722 -0.418829
rtibia 24.5989
rfoot -12.6777 -11.2349
rtoes -5.75939
lfemur -36.5077 -6.54569 1.25989
ltibia 23.1889
lfoot -13.5081 18.9846
ltoes -28.2665
129
root 6.43367 15.4911 -10.7718 21.6987 5.34623 -1.55752
lowerback 13.5282 4.37758 -2.3906
upperback 9.44572 5.49341 -0.528407
thorax 2.23547 2.65347 0.159239
lowerneck -8.7327 5.26623 2.4553
upperneck 11.9868 7.79819 -7.70979
head 5.45368 3.40736 -2.22267
rclavicle 5.96354e-015 -4.83047e-014
rhumerus -15.8648 12.474 -67.2747
rradius 58.2843
rwrist -0.0110432
rhand -22.9195 35.9796
rfingers 7.12502
rthumb 3.52084 6.02889
lclavicle 5.96354e-015 -4.83047e-014
lhumerus -16.3961 0.0705308 61.487
lradius 83.6221
lwrist 31.4469
lhand -22.9086 47.1342
lfingers 7.12502
lthumb 3.53133 77.0847
rfemur -37.9765 11.5112 0.756404
rtibia 23.9487
rfoot -12.8825 -11.8248
rtoes -4.49462
lfemur -37.6548 -5.93449 3.15171
ltibia 23.73
lfoot -13.9574 21.3876
ltoes -25.1344
130
root 6.35375 15.4675 -10.8295 22.6256 5.24564 -2.74347
lowerback 13.8532 4.25884 -2.95226
upperback 9.54248 5.26555 -1.14117
thorax 2.18615 2.53027 -0.159029
lowerneck -8.74454 5.64752 2.18249
upperneck 11.382 8.15811 -6.67609
head 5.23079 3.64939 -1.83511
rclavicle 1.71452e-014 -1.73937e-016
rhumerus -16.5742 11.0013 -65.5016
rradius 55.5223
rwrist -1.18689
rhand -21.8815 34.6726
rfingers 7.12502
rthumb 4.52323 4.74086
lclavicle 1.71452e-014 -1.73937e-016
lhumerus -13.1619 0.628821 60.3225
lradius 80.3983
lwrist 31.458
lhand -22.8805 47.2337
lfingers 7.12502
lthumb 3.55847 77.1838
rfemur -39.2784 12.1011 1.78767
rtibia 23.2861
rfoot -13.1094 -12.3616
rtoes -3.29345
lfemur -38.9062 -5.08825 4.97916
ltibia 24.3201
lfoot -13.9443 23.1509
ltoes -23.0616
131
root 6.27752 15.4311 -10.8885 23.4988 5.08172 -3.94838
lowerback 14.2896 4.09576 -3.52723
upperback 9.62754 4.96683 -1.80981
thorax 2.07224 2.37384 -0.527326
lowerneck -8.429 5.96496 2.16614
upperneck 10.4775 8.43166 -5.93888
head 4.87623 3.85352 -1.60513
rclavicle -2.70347e-014 6.75868e-014
rhumerus -17.7783 9.33381 -63.5664
rradius 53.1732
rwrist -2.4387
rhand -23.0503 33.8027
rfingers 7.12502
rthumb 3.39451 3.84993
lclavicle -2.70347e-014 6.75868e-014
lhumerus -9.76291 0.76047 59.1657
lradius 77.1044
lwrist 31.0071
lhand -22.5804 47.0678
lfingers 7.12502
lthumb 3.84834 77.0128
rfemur -40.5136 12.7279 2.70804
rtibia 22.4961
rfoot -13.0274 -12.6192
rtoes -2.24903
lfemur -40.0924 -4.41128 6.88502
ltibia 25.0347
lfoot -13.9459 24.4791
ltoes -21.0557
